<svg width="16" height="16" viewBox="0 0 16 16" fill="none" xmlns="http://www.w3.org/2000/svg">
<rect width="16" height="16" fill="#F5F5F5"/>
<rect width="16" height="16" fill="white"/>
<path fill-rule="evenodd" clip-rule="evenodd" d="M1 1C1 1.52529 1.10346 2.04543 1.30448 2.53073C1.5055 3.01604 1.80014 3.45699 2.17157 3.82843C2.54301 4.19986 2.98396 4.4945 3.46927 4.69552C3.95457 4.89654 4.47471 5 5 5L15 5C15 4.47471 14.8965 3.95457 14.6955 3.46927C14.4945 2.98396 14.1999 2.54301 13.8284 2.17157C13.457 1.80014 13.016 1.5055 12.5307 1.30448C12.0454 1.10346 11.5253 1 11 1H1ZM6 6C4.93913 6 3.92172 6.42143 3.17157 7.17157C2.42143 7.92172 2 8.93913 2 10L9 10C10.0609 10 11.0783 9.57857 11.8284 8.82843C12.5786 8.07828 13 7.06087 13 6L6 6ZM2.17157 12.1716C2.92172 11.4214 3.93913 11 5 11L10 11C10 12.0609 9.57857 13.0783 8.82843 13.8284C8.07828 14.5786 7.06087 15 6 15L1 15C1 13.9391 1.42143 12.9217 2.17157 12.1716Z" fill="#09090B"/>
</svg>
