<svg width="24" height="24" viewBox="0 0 24 24" fill="none" xmlns="http://www.w3.org/2000/svg">
<rect width="24" height="24" fill="#F5F5F5"/>
<rect width="24" height="24" fill="#09090B"/>
<path fill-rule="evenodd" clip-rule="evenodd" d="M5 5C5 5.52529 5.10346 6.04543 5.30448 6.53073C5.5055 7.01604 5.80014 7.45699 6.17157 7.82843C6.54301 8.19986 6.98396 8.4945 7.46927 8.69552C7.95457 8.89654 8.47471 9 9 9L19 9C19 8.47471 18.8965 7.95457 18.6955 7.46927C18.4945 6.98396 18.1999 6.54301 17.8284 6.17157C17.457 5.80014 17.016 5.5055 16.5307 5.30448C16.0454 5.10346 15.5253 5 15 5H5ZM10 10C8.93913 10 7.92172 10.4214 7.17157 11.1716C6.42143 11.9217 6 12.9391 6 14L13 14C14.0609 14 15.0783 13.5786 15.8284 12.8284C16.5786 12.0783 17 11.0609 17 10L10 10ZM6.17157 16.1716C6.92172 15.4214 7.93913 15 9 15L14 15C14 16.0609 13.5786 17.0783 12.8284 17.8284C12.0783 18.5786 11.0609 19 10 19L5 19C5 17.9391 5.42143 16.9217 6.17157 16.1716Z" fill="white"/>
</svg>
